<?xml version="1.0" encoding="UTF-8"?>
<svg id="Layer_2" data-name="Layer 2" xmlns="http://www.w3.org/2000/svg" viewBox="0 0 275.75 231.19">
  <defs>
    <style>
      .cls-1 {
        fill: #ad67fc;
      }

      .cls-2 {
        fill: #c4f6d8;
      }

      .cls-3 {
        fill: #fc7d5c;
      }
    </style>
  </defs>
  <g id="originalcortado">
    <path class="cls-3" d="M137.9,53.7c14.8,0,26.8-12.02,26.8-26.85S152.7,0,137.9,0s-26.8,12.03-26.8,26.86,12,26.85,26.8,26.85"/>
    <path class="cls-2" d="M256.57,102.1c10.59,0,19.18-8.59,19.18-19.18s-8.59-19.19-19.18-19.19-19.18,8.59-19.18,19.19,8.59,19.18,19.18,19.18"/>
    <path class="cls-1" d="M19.18,101.97c10.59,0,19.18-8.59,19.18-19.18s-8.59-19.19-19.18-19.19S0,72.19,0,82.78s8.59,19.18,19.18,19.18"/>
    <path class="cls-1" d="M87.57,121.58h.03v-1.88c0-1.3.07-2.59.17-3.86-10.15-3.55-21.9-1.29-30,6.81-11.26,11.26-11.26,29.58,0,40.84l29.8,29.81v-71.72Z"/>
    <path class="cls-3" d="M161.18,110.46l1.31-1.31c-4.23-10.72-14.68-18.32-26.88-18.32-15.93,0-28.88,12.96-28.88,28.88v45.16s54.42-54.43,54.42-54.43l.02.02Z"/>
    <path class="cls-2" d="M157.72,222.75l35.48-35.46.02.02,23.64-23.64c4.94-4.94,7.72-11.25,8.32-17.72.82-8.32-1.94-16.93-8.3-23.29-9-9-22.51-10.8-33.32-5.42,0,.05-.11.03-.11.08-2.72,1.35-5.17,3.23-7.43,5.49l-11.52,11.36-23.94,23.93-.02-.02-23.64,23.64c-4.94,4.94-7.72,11.25-8.32,17.72-.82,8.32,1.94,16.93,8.3,23.29,11.26,11.26,29.58,11.26,40.84,0Z"/>
  </g>
</svg>

